<svg xmlns="http://www.w3.org/2000/svg" xmlns:xlink="http://www.w3.org/1999/xlink" version="1.1" viewBox="0 0 100 100" enable-background="new 0 0 100 100" xml:space="preserve">
    <g id="stein">
        <path d="M41.628,9.357c0,1.739,1.415,3.154,3.154,3.154s3.154-1.415,3.154-3.154s-1.415-3.154-3.154-3.154   S41.628,7.618,41.628,9.357z M66.605,35.462c-2.131,0-4.087,0.745-5.634,1.981v-6.682h2.382l-5.99-10.556h-4.636l-4.056-7.145   h-7.78l-4.056,7.145h-4.635L26.21,30.762h2.381v48.981l-4.781,13.206h41.942l-4.781-13.206V65.854   c1.547,1.235,3.503,1.98,5.634,1.98c4.986,0,9.043-4.058,9.043-9.044V44.507C75.648,39.52,71.592,35.462,66.605,35.462z    M42.878,16.471h3.808l2.12,3.734h-8.047L42.878,16.471z M34.187,23.616h21.19l2.119,3.735H32.067L34.187,23.616z M57.561,30.762   v41.678H32.002V30.762H57.561z M32.002,75.851h25.558v2.486H32.002V75.851z M28.672,89.538l2.821-7.79H58.07l2.82,7.79H28.672z    M72.238,58.791c0,3.105-2.527,5.633-5.633,5.633c-3.107,0-5.634-2.527-5.634-5.633V44.507c0-3.106,2.526-5.634,5.634-5.634   c3.105,0,5.633,2.527,5.633,5.634V58.791z" />
    </g>
</svg>
